<svg width="358" height="362" viewBox="0 0 358 362" fill="none" xmlns="http://www.w3.org/2000/svg">
<path d="M148.867 2.79999C128.6 6.13332 104.333 15.4667 87.2667 26.5333L77.5333 32.8L72.7333 29.8667C65.5333 25.3333 52.2 24.8 43.2666 28.6667C35 32.2667 26.8666 40.8 24.6 48.4C21.2666 59.3333 23.4 73.0667 29.2666 79.6C31.2666 81.7333 30.8666 82.6667 24.6 92.2667C9.39998 115.467 0.333313 149.067 0.333313 182C0.333313 210.933 9.79998 246 23.6666 268.533C30.0666 278.933 30.7333 281.2 27.8 284.533C24.7333 288.133 23 295.333 23 304C23 315.333 27.9333 324.933 36.8666 330.933C48.4666 338.8 59.1333 339.6 70.4666 333.467L75.8 330.4L87.4 337.467C116.333 354.8 159.667 364.267 194.867 360.8C223.933 357.867 254.733 347.467 274.6 333.733L280.2 329.867L286.6 333.067C295.8 337.733 301.933 338.533 310.067 336.133C319.667 333.333 327.133 327.467 331.8 319.067C335.133 312.933 335.667 310.667 335.667 302C335.667 293.6 335 290.933 331.933 285.467L328.333 278.933L334.2 268.8C352.6 237.333 361.133 194.533 356.2 158.4C353.133 135.733 344.867 110.667 334.333 92.4L328.333 82.1333L332.067 75.2C336.733 66 337.133 52.2667 332.733 44C324.2 27.8667 304.733 21.4667 288.6 29.4667L281.8 32.8L271.667 26.6667C252.867 15.3333 228.867 6.13332 208.467 2.66666C194.6 0.266658 163.667 0.266658 148.867 2.79999ZM207.667 22.5333C228.2 26.9333 254.867 38 266.2 46.6667C270.333 49.8667 270.467 50.1333 269.933 58C269.533 63.6 270.067 67.8667 271.533 72L273.8 77.8667L265 86.2667C260.067 90.9333 255.667 94.8 255.133 95.0667C254.733 95.2 250.733 92.6667 246.333 89.3333C235.4 80.9333 216.467 71.8667 203 68.5333C187.133 64.5333 163 65.3333 147.933 70.5333C133.933 75.2 123.667 80.5333 112.867 88.6667L103.933 95.6L94.0667 85.7333L84.3333 76L87 70.6667C89.2667 66.4 89.8 63.3333 89.4 56L89 46.8L97.6667 41.7333C113.667 32.4 138.467 23.6 157 20.6667C167.933 19.0667 196.333 20 207.667 22.5333ZM191.4 92.2667C191.8 93.6 193.133 100.667 194.333 108C195.667 115.333 197.4 122 198.2 122.8C199 123.6 201.533 124.933 203.933 125.733C207.933 127.067 208.733 126.667 219.933 117.867C226.333 112.8 232.067 108.667 232.6 108.667C234.067 108.667 251 124.8 251 126.267C251 126.933 247 132.667 242.2 138.8L233.267 150.133L235.8 157.467C237.667 162.933 238.867 164.667 241 164.8C242.467 164.8 249.4 165.6 256.333 166.4L269 168L269.133 180.933C269.267 188 268.867 194.4 268.467 195.067C268.067 195.867 261.133 196.933 253.267 197.467L238.733 198.667L236.2 206.267L233.667 214L242.2 225.6C246.867 232 250.333 237.867 250.067 238.667C249.667 239.333 245.533 243.467 241 247.733L232.733 255.467L220.467 246L208.333 236.533L202.6 238.533C197.267 240.267 197 240.667 196.067 246.8C195.533 250.4 194.333 257.867 193.4 263.2L191.667 273.2L181.4 273.6C174.067 273.867 170.733 273.467 169.4 272.133C168.333 271.2 166.333 263.467 165 254.933L162.467 239.6L157.667 238.133C150.867 236.133 149.133 236.267 146.467 239.2C145.267 240.533 140.067 244.533 135 248L125.533 254.533L119.4 248.533C110.867 240.533 108.333 237.733 108.333 236.533C108.333 236 112.333 230.667 117.133 224.667L125.933 213.867L123.4 206L121 198.267L108.333 197.333C101.4 196.933 94.4667 196.4 93 196.267C90.6 196 90.3333 194.933 89.9333 181.867L89.5333 167.733L105.667 166C117.4 164.8 121.667 163.867 121.667 162.533C121.667 161.6 122.6 158 123.8 154.667L125.8 148.4L120.067 142.267C116.867 138.8 112.467 133.733 110.467 130.933L106.6 125.867L111.133 121.2C113.667 118.533 117.933 114.667 120.733 112.4L125.667 108.4L137.667 117.333C148.6 125.467 149.933 126.133 154.333 125.2C157 124.8 159.8 123.6 160.733 122.8C161.667 121.867 163.8 114.133 165.533 105.6L168.733 90H179.8C189.133 90 190.867 90.4 191.4 92.2667ZM77.4 102.4L88.3333 113.467L84.8667 118C79.4 125.467 72.4667 141.067 69.5333 152.933C66.3333 165.733 65.6666 192.533 68.3333 205.6C70.4666 216.667 75.6667 229.6 81.6667 239.733C84.6 244.533 87 249.333 87 250.267C87 251.333 82.6 256.533 77.1333 261.867L67.2666 271.6L62.4666 270C59.6666 269.2 55.4 268.8 52.4666 269.333C47.6666 270.133 47.1333 269.867 44.6 265.733C38.7333 256.133 31.1333 239.467 27.9333 229.333C24.3333 217.733 19.4 190.533 20.7333 189.2C21.1333 188.8 23.2666 189.733 25.5333 191.467C33.5333 197.333 45.8 191.467 46.0666 181.6C46.2 175.333 43.5333 170.533 38.8666 168.533C34.3333 166.8 27.5333 167.733 24.2 170.8C20.7333 174 20.0666 171.2 21.6666 159.333C24.6 138 30.6 119.733 40.6 102.4L46.0666 92.6667L53 93.4667C57.1333 94 61 93.7333 62.4666 92.9333C63.9333 92.1333 65.2666 91.3333 65.6666 91.3333C66.0666 91.3333 71.4 96.2667 77.4 102.4ZM305 93.6C308.733 93.0667 311.133 93.3333 312.067 94.4C315.933 99.0667 327.4 122.933 330.867 133.467C334.6 144.533 338.867 170.667 337.133 172.267C336.733 172.667 334.867 171.733 332.867 170.133C327.667 166 321 166.4 316.333 171.2C311.267 176.267 310.2 180.667 313 186.4C316.867 194.533 326.467 196 334.467 189.6L338.067 186.8L337.133 197.467C335.267 218.133 329 238 317.4 259.467L311.667 270L306.333 269.733C303.4 269.6 298.6 269.867 295.667 270.4C290.333 271.467 290.333 271.333 279.8 260.8L269.4 250.267L273.667 244C279.533 235.467 286.2 220.533 289.133 209.333C292.467 196.4 292.467 166.533 289.133 153.333C286.067 141.6 281.267 130.267 274.733 120L269.533 112L280.333 101.733C290.6 91.8667 291.133 91.4667 295.133 92.9333C297.4 93.7333 301.8 94 305 93.6ZM111 273.2C134.467 293.333 171.933 301.2 205.667 293.333C217.267 290.533 239.533 279.6 247.267 272.667C254.733 266.133 254.867 266.267 266.2 277.733L273.933 285.733L271.667 291.867C269.933 296.533 269.533 300.133 270.067 306.4L270.867 314.8L256.6 322.267C224.067 339.467 192.467 345.067 156.6 340C132.067 336.533 112.467 329.6 94.0667 318.267L88.4667 314.667L89.2667 305.333C89.9333 297.333 89.5333 295.067 87.2667 290.667L84.4667 285.333L93.4 276.4C98.3333 271.467 102.733 267.333 103.267 267.333C103.667 267.333 107.267 270 111 273.2Z" fill="#BD93F9"/>
<path d="M172.067 154.267C161.533 157.067 151 170.933 151 182C151.133 198.133 166.867 211.867 183 209.6C195.933 207.867 206.733 196.533 208.067 183.2C209.267 170.8 199.8 157.6 186.867 154C181.533 152.4 178.733 152.533 172.067 154.267Z" fill="#BD93F9"/>
</svg>
