<?xml version="1.0" standalone="no"?>
<!DOCTYPE svg PUBLIC "-//W3C//DTD SVG 20010904//EN"
 "http://www.w3.org/TR/2001/REC-SVG-20010904/DTD/svg10.dtd">
<svg version="1.0" xmlns="http://www.w3.org/2000/svg"
 width="345.000000pt" height="308.000000pt" viewBox="0 0 345.000000 308.000000"
 preserveAspectRatio="xMidYMid meet">

<g transform="translate(0.000000,308.000000) scale(0.100000,-0.100000)"
fill="#000000" stroke="none">
<path d="M1454 2834 c-152 -25 -334 -95 -462 -178 l-73 -47 -36 22 c-54 34
-154 38 -221 9 -62 -27 -123 -91 -140 -148 -25 -82 -9 -185 35 -234 15 -16 12
-23 -35 -95 -114 -174 -182 -426 -182 -673 0 -217 71 -480 175 -649 48 -78 53
-95 31 -120 -23 -27 -36 -81 -36 -146 0 -85 37 -157 104 -202 87 -59 167 -65
252 -19 l40 23 87 -53 c217 -130 542 -201 806 -175 218 22 449 100 598 203
l42 29 48 -24 c69 -35 115 -41 176 -23 72 21 128 65 163 128 25 46 29 63 29
128 0 63 -5 83 -28 124 l-27 49 44 76 c138 236 202 557 165 828 -23 170 -85
358 -164 495 l-45 77 28 52 c35 69 38 172 5 234 -64 121 -210 169 -331 109
l-51 -25 -76 46 c-141 85 -321 154 -474 180 -104 18 -336 18 -447 -1z m441
-148 c154 -33 354 -116 439 -181 31 -24 32 -26 28 -85 -3 -42 1 -74 12 -105
l17 -44 -66 -63 c-37 -35 -70 -64 -74 -66 -3 -1 -33 18 -66 43 -82 63 -224
131 -325 156 -119 30 -300 24 -413 -15 -105 -35 -182 -75 -263 -136 l-67 -52
-74 74 -73 73 20 40 c17 32 21 55 18 110 l-3 69 65 38 c120 70 306 136 445
158 82 12 295 5 380 -14z m-122 -523 c3 -10 13 -63 22 -118 10 -55 23 -105 29
-111 6 -6 25 -16 43 -22 30 -10 36 -7 120 59 48 38 91 69 95 69 11 0 138 -121
138 -132 0 -5 -30 -48 -66 -94 l-67 -85 19 -55 c14 -41 23 -54 39 -55 11 0 63
-6 115 -12 l95 -12 1 -97 c1 -53 -2 -101 -5 -106 -3 -6 -55 -14 -114 -18
l-109 -9 -19 -57 -19 -58 64 -87 c35 -48 61 -92 59 -98 -3 -5 -34 -36 -68 -68
l-62 -58 -92 71 -91 71 -43 -15 c-40 -13 -42 -16 -49 -62 -4 -27 -13 -83 -20
-123 l-13 -75 -77 -3 c-55 -2 -80 1 -90 11 -8 7 -23 65 -33 129 l-19 115 -36
11 c-51 15 -64 14 -84 -8 -9 -10 -48 -40 -86 -66 l-71 -49 -46 45 c-64 60 -83
81 -83 90 0 4 30 44 66 89 l66 81 -19 59 -18 58 -95 7 c-52 3 -104 7 -115 8
-18 2 -20 10 -23 108 l-3 106 121 13 c88 9 120 16 120 26 0 7 7 34 16 59 l15
47 -43 46 c-24 26 -57 64 -72 85 l-29 38 34 35 c19 20 51 49 72 66 l37 30 90
-67 c82 -61 92 -66 125 -59 20 3 41 12 48 18 7 7 23 65 36 129 l24 117 83 0
c70 0 83 -3 87 -17z m-855 -76 l82 -83 -26 -34 c-41 -56 -93 -173 -115 -262
-24 -96 -29 -297 -9 -395 16 -83 55 -180 100 -256 22 -36 40 -72 40 -79 0 -8
-33 -47 -74 -87 l-74 -73 -36 12 c-21 6 -53 9 -75 5 -36 -6 -40 -4 -59 27 -44
72 -101 197 -125 273 -27 87 -64 291 -54 301 3 3 19 -4 36 -17 60 -44 152 0
154 74 1 47 -19 83 -54 98 -34 13 -85 6 -110 -17 -26 -24 -31 -3 -19 86 22
160 67 297 142 427 l41 73 52 -6 c31 -4 60 -2 71 4 11 6 21 12 24 12 3 0 43
-37 88 -83z m1707 66 c28 4 46 2 53 -6 29 -35 115 -214 141 -293 28 -83 60
-279 47 -291 -3 -3 -17 4 -32 16 -39 31 -89 28 -124 -8 -38 -38 -46 -71 -25
-114 29 -61 101 -72 161 -24 l27 21 -7 -80 c-14 -155 -61 -304 -148 -465 l-43
-79 -40 2 c-22 1 -58 -1 -80 -5 -40 -8 -40 -7 -119 72 l-78 79 32 47 c44 64
94 176 116 260 25 97 25 321 0 420 -23 88 -59 173 -108 250 l-39 60 81 77 c77
74 81 77 111 66 17 -6 50 -8 74 -5z m-1455 -1347 c176 -151 457 -210 710 -151
87 21 254 103 312 155 56 49 57 48 142 -38 l58 -60 -17 -46 c-13 -35 -16 -62
-12 -109 l6 -63 -107 -56 c-244 -129 -481 -171 -750 -133 -184 26 -331 78
-469 163 l-42 27 6 70 c5 60 2 77 -15 110 l-21 40 67 67 c37 37 70 68 74 68 3
0 30 -20 58 -44z"/>
<path d="M1628 1698 c-79 -21 -158 -125 -158 -208 1 -121 119 -224 240 -207
97 13 178 98 188 198 9 93 -62 192 -159 219 -40 12 -61 11 -111 -2z"/>
</g>
</svg>
